Coordinates
version=1
nRows=4
nColumns=107
inDegrees=yes

Units are S.I. units (second, meters, Newtons, ...)
If the header above contains a line with 'inDegrees', this indicates whether rotational values are in degrees (yes) or radians (no).

endheader
time	sternoclavicular_r2	sternoclavicular_r3	unrotscap_r3	unrotscap_r2	acromioclavicular_r2	acromioclavicular_r3	acromioclavicular_r1	unrothum_r1	unrothum_r3	unrothum_r2	elv_angle	shoulder_elv	shoulder1_r2	shoulder_rot	elbow_flexion	pro_sup	deviation	flexion	proximal_distal_r1	proximal_distal_r3	cmc_flexion	cmc_abduction	mp_flexion	ip_flexion	mcp2_flexion	mcp2_abduction	pm2_flexion	md2_flexion	mcp3_flexion	mcp3_abduction	pm3_flexion	md3_flexion	mcp4_flexion	mcp4_abduction	pm4_flexion	md4_flexion	mcp5_flexion	mcp5_abduction	pm5_flexion	md5_flexion	bicpt_tx	bicpt_ty	bicpt_tz	bicpt2_tx	bicpt2_ty	bicpt2_tz	ptpt_tx	ptpt_ty	ptpt_tz	FCUpt_tx	FCUpt_ty	FCUpt_tz	EDCpt_tx	EDCpt_ty	EDCpt_tz	APLpt_tx	APLpt_ty	APLpt_tz	FPLpt_tx	FPLpt_ty	FPLpt_tz	FPLpt2_tx	FPLpt2_ty	FPLpt2_tz	PEC1pt2_tx	PEC1pt2_ty	PEC1pt2_tz	PEC1pt3_tx	PEC1pt3_ty	PEC1pt3_tz	PEC2pt2_tx	PEC2pt2_ty	PEC2pt2_tz	PEC2pt3_tx	PEC2pt3_ty	PEC2pt3_tz	PEC3pt2_tx	PEC3pt2_ty	PEC3pt2_tz	PEC3pt3_tx	PEC3pt3_ty	PEC3pt3_tz	DELT2pt2a_tx	DELT2pt2a_ty	DELT2pt2a_tz	DELT2pt2_tx	DELT2pt2_ty	DELT2pt2_tz	LAT1pt2_tx	LAT1pt2_ty	LAT1pt2_tz	LAT1pt3_tx	LAT1pt3_ty	LAT1pt3_tz	LAT2pt2_tx	LAT2pt2_ty	LAT2pt2_tz	LAT2pt3_tx	LAT2pt3_ty	LAT2pt3_tz	LAT3pt2_tx	LAT3pt2_ty	LAT3pt2_tz	LAT3pt3_tx	LAT3pt3_ty	LAT3pt3_tz
      1.36666667	     -0.32565690	      0.13793289	     -0.13793289	      0.32565690	     -0.06593890	      0.53289498	      0.23953263	     -0.23953263	     -0.53289498	      0.06593890	     98.60761947	     77.10216669	     -1.72102763	    -20.99286237	     30.23381370	     61.80662775	      0.31431118	     -0.04118296	      0.34570318	     -0.02059148	     18.18964360	    -21.22110235	     -7.87596542	      8.38437568	      8.30461295	      7.30145728	     28.31227577	    -13.12405181	     17.49517407	      1.36586599	     17.97380088	     17.86518745	     23.86129605	     -5.68388474	     -1.11195872	     21.54376987	     26.11945892	    -13.70538547	     -0.74309231	      5.12522122	      0.00090004	     -0.03106526	     -0.00485816	      0.01607129	     -0.01841316	     -0.00480883	      0.00298319	     -0.06785298	     -0.00502886	      0.01004907	     -0.18297393	     -0.00036219	     -0.00741678	      0.00234068	     -0.00013897	      0.00004072	      0.00001629	      0.00008143	      0.00005212	      0.00015635	      0.00008795	      0.00001628	     -0.00027099	     -0.00032519	      0.00252724	      0.00886676	      0.00616818	     -0.00826707	      0.01996091	     -0.01893288	      0.00252724	      0.00886676	      0.00616818	      0.00055685	      0.01850454	     -0.00972345	      0.00398318	      0.00493069	      0.01605314	      0.00000000	      0.00795167	      0.00000000	     -0.00723904	     -0.03345380	     -0.00655746	      0.01434260	     -0.00046262	     -0.00365057	     -0.00089953	      0.01507777	     -0.00616818	      0.00248441	      0.02175996	     -0.01799052	     -0.00603967	      0.01306454	     -0.00552566	     -0.01259336	      0.02758547	     -0.03088373	     -0.02364468	      0.01460659	     -0.00741038	     -0.01567745	      0.03186892	     -0.03859395
      1.40000000	     -0.32588657	      0.13803017	     -0.13803017	      0.32588657	     -0.06598540	      0.53327080	      0.23970156	     -0.23970156	     -0.53327080	      0.06598540	     98.53265666	     77.15654243	     -1.71971928	    -20.79981349	     30.31424206	     63.12963740	      0.31450571	     -0.04530672	      0.34586686	     -0.02265336	     15.95641331	    -19.75483634	     -9.31713547	      7.91550571	      8.26155437	      6.58460409	     28.76173777	    -12.91691124	     17.68047954	      1.07766326	     18.47097350	     18.04674911	     24.39864798	     -5.93368263	     -0.74698187	     21.68409774	     26.99916151	    -13.54214930	     -0.22977887	      5.20019563	      0.00090270	     -0.03107448	     -0.00485965	      0.01600568	     -0.01843501	     -0.00462586	      0.00288543	     -0.06791619	     -0.00513543	      0.01019146	     -0.18293796	     -0.00034917	     -0.00757554	      0.00240369	     -0.00016460	      0.00004464	      0.00001785	      0.00008927	      0.00005714	      0.00017141	      0.00009642	      0.00002161	     -0.00025746	     -0.00030896	      0.00252902	      0.00887301	      0.00617253	     -0.00827290	      0.01997499	     -0.01894623	      0.00252902	      0.00887301	      0.00617253	      0.00055724	      0.01851759	     -0.00973031	      0.00398522	      0.00493417	      0.01605805	      0.00000000	      0.00796297	      0.00000000	     -0.00724415	     -0.03347739	     -0.00656684	      0.01423358	     -0.00045663	     -0.00358078	     -0.00090016	      0.01508840	     -0.00617253	      0.00248616	      0.02177531	     -0.01800321	     -0.00604393	      0.01307376	     -0.00552956	     -0.01260225	      0.02760492	     -0.03090551	     -0.02366136	      0.01461689	     -0.00741561	     -0.01568851	      0.03189140	     -0.03862117
      1.43333333	     -0.32231856	      0.13651893	     -0.13651893	      0.32231856	     -0.06526295	      0.52743222	      0.23707715	     -0.23707715	     -0.52743222	      0.06526295	     99.38530176	     76.31178331	     -1.73460074	    -24.95257971	     30.20665854	     67.17632240	      0.27148834	     -0.14983876	      0.30811952	     -0.07491938	     14.65524009	    -17.40703321	    -11.26081090	      6.35600533	      9.11799395	      6.60824935	     30.51246926	    -12.03009825	     19.22735040	      1.02012590	     18.62826216	     18.41563641	     26.09252808	     -6.02598209	     -0.68008492	     22.46928405	     28.26920982	    -13.40832683	      1.03427932	      5.13994686	      0.00089914	     -0.03106214	     -0.00485766	      0.01578037	     -0.01840579	     -0.00405115	      0.00258643	     -0.06810953	     -0.00546141	      0.01063029	     -0.18282488	     -0.00030124	     -0.00806114	      0.00259972	     -0.00024881	      0.00013451	      0.00005380	      0.00026902	      0.00017217	      0.00051652	      0.00029054	      0.00002452	     -0.00024706	     -0.00029647	      0.00250133	      0.00877586	      0.00610495	     -0.00818233	      0.01975629	     -0.01873880	      0.00250133	      0.00877586	      0.00610495	      0.00055114	      0.01831484	     -0.00962377	      0.00395342	      0.00488015	      0.01598102	      0.00000000	      0.00778832	      0.00000000	     -0.00716483	     -0.03311086	     -0.00642188	      0.01647027	     -0.00058869	     -0.00520365	     -0.00089030	      0.01492321	     -0.00610495	      0.00245894	      0.02153690	     -0.01780610	     -0.00597776	      0.01293062	     -0.00546902	     -0.01246427	      0.02730268	     -0.03056713	     -0.02340230	      0.01445686	     -0.00733442	     -0.01551674	      0.03154223	     -0.03819832
      1.46666667	     -0.32302249	      0.13681708	     -0.13681708	      0.32302249	     -0.06540548	      0.52858411	      0.23759492	     -0.23759492	     -0.52858411	      0.06540548	     99.20183962	     76.47844515	     -1.73139873	    -24.28061469	     30.16959061	     68.07690156	      0.27332624	     -0.15345946	      0.30979413	     -0.07672973	     13.81421499	    -17.00891789	    -11.73626364	      6.20930650	      9.13219775	      6.46867816	     30.57230472	    -12.00381127	     19.23287536	      1.01278594	     18.68215882	     18.43483551	     26.07542750	     -5.90404517	     -0.66582023	     22.47402889	     28.13956460	    -13.09929717	      1.02738641	      5.14336057	      0.00089792	     -0.03105790	     -0.00485698	      0.01572518	     -0.01839572	     -0.00392016	      0.00251989	     -0.06815256	     -0.00553396	      0.01072863	     -0.18279908	     -0.00028892	     -0.00816921	      0.00264403	     -0.00026875	      0.00013729	      0.00005492	      0.00027458	      0.00017573	      0.00052719	      0.00029654	      0.00002629	     -0.00023938	     -0.00028725	      0.00250680	      0.00879503	      0.00611828	     -0.00820020	      0.01979944	     -0.01877972	      0.00250680	      0.00879503	      0.00611828	      0.00055234	      0.01835484	     -0.00964479	      0.00395971	      0.00489080	      0.01599635	      0.00000000	      0.00782262	      0.00000000	     -0.00718048	     -0.03318318	     -0.00645035	      0.01612399	     -0.00056690	     -0.00492399	     -0.00089225	      0.01495580	     -0.00611828	      0.00246431	      0.02158393	     -0.01784499	     -0.00599082	      0.01295886	     -0.00548096	     -0.01249149	      0.02736231	     -0.03063389	     -0.02345341	      0.01448843	     -0.00735043	     -0.01555063	      0.03161112	     -0.03828174
